ply
format ascii 1.0
element vertex 192
property float x
property float y
property float z
property uchar red
property uchar green
property uchar blue
end_header
0.10524865984916687 -1.808518409729004 7.520354270935059 38 46 48
0.1055462583899498 -1.7495450973510742 7.251150131225586 43 51 53
0.016734594479203224 0.5578617453575134 -3.3114070892333984 62 70 72
-0.4876965582370758 0.61025071144104 -2.9999289512634277 27 5 0
0.19224753975868225 0.4128444790840149 -2.612088680267334 48 57 56
-0.6094571352005005 0.7949614524841309 -3.3640244007110596 75 54 34
-0.6042999029159546 0.7092530131340027 -3.3242380619049072 60 36 12
-0.0031274817883968353 0.41149306297302246 -2.640378952026367 39 47 49
-0.4184431731700897 0.598407506942749 -2.888669490814209 72 45 26
-0.476731538772583 0.8171206712722778 -2.9530820846557617 65 41 26
-0.6035570502281189 0.935164213180542 -3.366234302520752 120 110 99
-0.5946535468101501 0.9192975163459778 -3.3102569580078125 190 176 165
-0.4865277409553528 0.6098777651786804 -3.0016887187957764 55 33 12
-0.529175877571106 0.6322423815727234 -3.0511562824249268 192 176 168
-0.5257511138916016 0.7034570574760437 -3.036356210708618 231 203 179
-0.6081366539001465 0.7897589206695557 -3.3512320518493652 154 133 107
-0.4186919033527374 0.602665364742279 -2.8892457485198975 30 6 0
-0.4540993869304657 0.6738541722297668 -2.92199444770813 35 9 0
-0.5965620875358582 0.848647952079773 -3.2966418266296387 54 32 18
-0.4979192912578583 0.5948789715766907 -3.023745059967041 206 196 171
-0.6003061532974243 0.7950230836868286 -3.303647518157959 243 220 202
-0.5969974994659424 0.7108852863311768 -3.252930164337158 42 24 2
-0.4537075459957123 0.6066257357597351 -2.9330379962921143 77 60 56
-0.45668306946754456 0.5823308825492859 -2.945127487182617 18 0 0
-0.5035304427146912 0.7232657074928284 -3.001253604888916 199 181 179
-0.48814940452575684 0.5672153234481812 -3.0118963718414307 162 147 140
-0.5017117261886597 0.6028350591659546 -3.018596887588501 228 215 191
-0.3931107521057129 0.6022909283638 -2.854665756225586 255 239 219
-0.44767051935195923 0.7383719682693481 -2.903876543045044 26 1 0
-0.5982972383499146 0.6846193075180054 -3.259354829788208 79 53 26
-0.6058779358863831 0.8518839478492737 -3.334073066711426 31 8 0
-0.5000395178794861 0.5927287340164185 -3.018162727355957 236 225 203
-0.6012240648269653 0.775793194770813 -3.3019444942474365 121 100 73
-0.6201413869857788 0.8127338290214539 -3.414247751235962 177 150 133
-0.5873000025749207 0.8182721734046936 -3.2426161766052246 45 13 0
-0.47243061661720276 0.7272002696990967 -2.958059549331665 165 139 116
-0.4214722514152527 0.6636158227920532 -2.8840415477752686 21 0 0
-0.5971293449401855 0.6852923035621643 -3.2605090141296387 109 85 57
-0.44988250732421875 0.6945542693138123 -2.9129812717437744 57 35 12
-0.4610893726348877 0.7361899018287659 -2.9218125343322754 60 41 26
-0.4292847812175751 0.7541356086730957 -2.877479076385498 24 0 0
-0.5994575023651123 0.930643618106842 -3.339872121810913 223 209 200
-0.49963438510894775 0.7522306442260742 -3.004758358001709 165 154 150
-0.5998743176460266 0.7980788350105286 -3.303009271621704 96 74 53
-0.5008840560913086 0.7515240907669067 -2.998260736465454 202 193 188
-0.4760299324989319 0.6766014099121094 -2.968195915222168 113 80 63
-0.4576241374015808 0.7354767918586731 -2.9254157543182373 60 41 26
-0.0059282430447638035 0.4117831289768219 -2.636207103729248 62 70 73
1.3430938720703125 1.8921303749084473 -7.024310111999512 198 174 150
1.330910325050354 1.7977930307388306 -7.016598224639893 53 34 4
1.3476589918136597 1.6360578536987305 -7.08989143371582 37 15 4
1.3379789590835571 1.844098687171936 -7.021996021270752 45 24 8
1.5463409423828125 1.7234268188476562 -7.498668193817139 83 62 45
1.3826630115509033 1.7557663917541504 -7.163711071014404 30 7 1
1.314170002937317 1.8710484504699707 -6.957836627960205 20 0 0
1.509433627128601 1.746203064918518 -7.418274879455566 18 4 0
1.5833508968353271 1.6728596687316895 -7.578491687774658 185 163 149
1.577584981918335 1.6683106422424316 -7.571824550628662 207 188 169
1.3601415157318115 1.4878625869750977 -7.113117694854736 144 121 90
1.6187463998794556 1.7571722269058228 -7.618605136871338 49 31 13
1.3862712383270264 1.926738977432251 -7.116745948791504 36 18 7
1.4738692045211792 1.686934471130371 -7.357358455657959 69 51 31
1.5610884428024292 1.7717373371124268 -7.509424209594727 44 27 7
1.493323564529419 1.8324521780014038 -7.356324195861816 24 12 0
1.351155161857605 1.9085516929626465 -7.029757499694824 93 69 41
1.3643138408660889 1.740259051322937 -7.118350505828857 75 52 38
1.5708296298980713 1.6411705017089844 -7.56416130065918 143 121 97
1.6172904968261719 1.7952537536621094 -7.602868556976318 42 20 15
1.501709222793579 1.6989729404449463 -7.4132232666015625 54 25 13
1.4008859395980835 1.5633423328399658 -7.237135410308838 222 202 191
1.3213849067687988 1.8758621215820312 -6.973447799682617 26 1 0
1.4909121990203857 1.6549714803695679 -7.406303405761719 255 241 225
1.350197196006775 1.8162091970443726 -7.071972846984863 29 8 0
1.3623385429382324 1.8169240951538086 -7.086860656738281 53 32 20
1.3304623365402222 1.7169685363769531 -7.033247470855713 204 177 168
1.7295434474945068 2.017359733581543 -7.696626663208008 15 0 0
1.450054407119751 1.8933346271514893 -7.243241786956787 51 30 13
1.5156772136688232 1.7080515623092651 -7.437112331390381 40 24 11
1.625246286392212 1.705702781677246 -7.642909049987793 54 35 26
1.3881862163543701 1.8160877227783203 -7.161355972290039 68 39 21
1.471206784248352 1.7204638719558716 -7.337040901184082 144 128 105
1.3801522254943848 1.8322902917861938 -7.135673522949219 59 31 30
1.5486193895339966 1.7233834266662598 -7.500293731689453 26 5 0
1.3590121269226074 1.734785795211792 -7.1075439453125 35 13 3
1.5277286767959595 1.6365318298339844 -7.476709365844727 223 201 190
1.361952304840088 1.5584865808486938 -7.133847236633301 86 64 43
1.3883110284805298 1.8417060375213623 -7.150177001953125 22 0 0
1.627163052558899 1.665134310722351 -7.6581501960754395 20 1 0
1.3585288524627686 1.8211991786956787 -7.083276271820068 111 87 63
1.3603538274765015 1.868795394897461 -7.068471908569336 106 88 66
1.5430420637130737 1.7656891345977783 -7.4790496826171875 30 12 0
1.3830145597457886 1.8997312784194946 -7.112381458282471 96 62 35
2.585925579071045 1.7785977125167847 -7.952341556549072 160 129 108
2.5959157943725586 1.9341974258422852 -7.849939346313477 39 20 0
2.6474480628967285 1.9615379571914673 -7.916652679443359 41 29 13
2.5121450424194336 1.8713412284851074 -7.747185707092285 67 47 24
2.423281669616699 1.610768437385559 -7.741770267486572 39 18 9
2.6069345474243164 1.9389315843582153 -7.865454196929932 13 0 0
2.5047295093536377 1.9131399393081665 -7.687046527862549 38 13 0
2.6085212230682373 1.9410896301269531 -7.865558624267578 57 33 19
2.4987947940826416 1.8130699396133423 -7.768756866455078 49 25 17
2.554264783859253 1.9525978565216064 -7.7711076736450195 133 113 96
2.4205737113952637 1.609450340270996 -7.739840507507324 29 7 0
2.4849021434783936 1.693821907043457 -7.837374687194824 36 21 7
2.5590968132019043 1.7960561513900757 -7.8912458419799805 58 40 18
2.494183301925659 1.8067822456359863 -7.758401870727539 43 23 14
2.5063281059265137 1.8928812742233276 -7.713044166564941 99 76 49
2.4331390857696533 1.838454008102417 -7.518937587738037 36 28 5
2.512521505355835 1.2047905921936035 -6.8971943855285645 52 61 60
2.468480110168457 1.794093370437622 -7.713647365570068 193 170 164
2.615464925765991 1.8855229616165161 -7.92130708694458 37 27 15
2.512918710708618 1.2046254873275757 -6.900051116943359 104 113 112
2.509303569793701 1.8255196809768677 -7.794533729553223 70 47 31
2.659355401992798 2.0239620208740234 -7.882464408874512 64 42 29
2.4311513900756836 1.8406333923339844 -7.517733573913574 18 10 0
2.5904042720794678 1.8720029592514038 -7.887558460235596 74 52 31
2.4580774307250977 1.7293992042541504 -7.745057106018066 10 0 0
2.617889881134033 2.0006160736083984 -7.831851005554199 56 43 30
2.5639562606811523 1.770174503326416 -7.917473793029785 80 62 40
2.4498655796051025 1.6675889492034912 -7.765347957611084 38 20 0
2.5251059532165527 1.9131451845169067 -7.741444110870361 30 13 0
2.6128649711608887 1.8869067430496216 -7.9183878898620605 40 27 10
2.5497052669525146 1.937169075012207 -7.772176265716553 63 38 18
2.6217122077941895 1.9784727096557617 -7.855438709259033 69 43 28
2.5111677646636963 1.9449819326400757 -7.6729021072387695 92 59 26
2.6717865467071533 2.029388189315796 -7.896883964538574 11 0 0
-0.3151485323905945 1.0832531452178955 -5.3925580978393555 69 78 77
-0.4949699640274048 1.0832831859588623 -5.305334091186523 54 63 62
-0.30094945430755615 1.0845826864242554 -5.405148983001709 112 121 120
-0.420980304479599 1.076261281967163 -5.333157539367676 51 60 59
-9.66000747680664 0.9536652565002441 -0.6910360455513 50 56 56
-9.265145301818848 0.9482874870300293 -0.8961672186851501 150 156 156
-9.630266189575195 0.9366101622581482 -0.6904477477073669 100 106 106
-9.285356521606445 0.9437539577484131 -0.880827009677887 150 156 156
-13.671199798583984 0.8806036114692688 1.3353946208953857 69 75 75
-14.635764122009277 0.8591284155845642 1.7990719079971313 151 157 157
-13.811084747314453 0.8638812899589539 1.4247206449508667 42 48 48
-14.031889915466309 0.8613664507865906 1.5255191326141357 111 117 117
-14.305379867553711 0.8542547821998596 1.657780647277832 111 117 117
-14.634081840515137 0.8532693982124329 1.8055472373962402 151 157 157
-13.68742847442627 0.8900696635246277 1.331458568572998 60 66 66
3.8363771438598633 1.1541759967803955 -7.482266902923584 70 76 76
4.547400951385498 1.1635582447052002 -7.842105865478516 104 110 110
3.6555516719818115 1.1531891822814941 -7.393313884735107 54 60 60
5.206018447875977 1.1736153364181519 -8.171538352966309 50 56 56
-12.574479103088379 1.1636556386947632 -0.542427122592926 96 105 104
7.497588157653809 1.785300850868225 -9.499903678894043 15 0 0
9.097197532653809 1.2950611114501953 -10.258796691894531 0 2 5
9.409489631652832 1.2618850469589233 -10.373881340026855 14 13 8
9.38650131225586 1.263953447341919 -10.366437911987305 4 3 1
9.457898139953613 1.2695014476776123 -10.398900032043457 16 17 21
9.242924690246582 1.242663860321045 -10.257664680480957 224 215 200
8.758612632751465 1.3729140758514404 -10.141037940979004 14 24 26
9.61621379852295 1.2386659383773804 -10.431841850280762 58 26 6
9.476693153381348 1.2665777206420898 -10.403605461120605 16 17 21
9.389633178710938 1.242368221282959 -10.341455459594727 46 10 0
9.589035987854004 1.241302251815796 -10.424992561340332 15 2 0
9.258040428161621 1.241786241531372 -10.265095710754395 207 198 181
7.277768611907959 1.845138669013977 -9.324973106384277 145 136 129
9.79676628112793 1.2500553131103516 -10.514200210571289 132 138 138
7.531167030334473 1.7450605630874634 -9.479792594909668 30 17 11
9.149866104125977 1.2865535020828247 -10.277491569519043 129 128 130
8.947447776794434 1.2573912143707275 -10.003680229187012 170 175 179
9.262105941772461 1.2416878938674927 -10.267247200012207 203 194 179
9.105178833007812 1.289978265762329 -10.26082706451416 0 0 0
9.567105293273926 1.2422391176223755 -10.417706489562988 28 15 0
8.139642715454102 1.8482606410980225 -10.059965133666992 231 224 195
9.899198532104492 1.3634026050567627 -10.706718444824219 38 34 33
9.69295597076416 1.3522285223007202 -10.618565559387207 75 75 77
7.944594860076904 1.7758256196975708 -9.847102165222168 142 124 114
7.920619487762451 1.7797119617462158 -9.837431907653809 77 59 49
6.856017112731934 2.7175140380859375 -9.13103199005127 254 249 246
9.927857398986816 1.364201545715332 -10.714869499206543 37 34 29
9.776028633117676 1.3733927011489868 -10.672651290893555 26 18 15
9.83062744140625 1.344875693321228 -10.664331436157227 103 96 86
9.579388618469238 1.2933629751205444 -10.113426208496094 188 209 228
10.452672004699707 1.39583158493042 -10.855234146118164 223 243 232
8.83495044708252 1.5142145156860352 -10.298542976379395 255 253 244
9.320496559143066 1.4164661169052124 -10.507793426513672 89 97 99
9.668289184570312 1.3576468229293823 -10.613578796386719 32 31 36
9.694271087646484 1.3565962314605713 -10.622787475585938 93 91 98
6.835161209106445 2.722435712814331 -9.12454891204834 255 253 248
10.68593978881836 1.3730225563049316 -10.871949195861816 177 180 161
8.330196380615234 1.7059173583984375 -10.10606575012207 247 228 213
9.82957649230957 1.3733030557632446 -10.690622329711914 45 42 37
10.024120330810547 1.4294394254684448 -10.312143325805664 39 50 0
9.793573379516602 1.3736013174057007 -10.677395820617676 30 22 19
8.740589141845703 1.726714849472046 -9.263858795166016 234 244 233
9.34627914428711 1.3821147680282593 -10.475910186767578 241 250 239
8.816926956176758 1.7132036685943604 -9.326301574707031 240 247 242
9.915806770324707 1.3191784620285034 -10.658909797668457 111 86 64
10.070934295654297 1.3425025939941406 -10.737871170043945 100 81 51
