ply
format ascii 1.0
element vertex 129
property float x
property float y
property float z
property uchar red
property uchar green
property uchar blue
end_header
-0.02937183901667595 -1.700650930404663 7.936784744262695 89 95 95
-0.019504277035593987 -1.2468328475952148 5.777907371520996 119 125 125
-0.017332542687654495 -1.2651309967041016 5.857443332672119 119 125 125
-0.31068718433380127 -5.515622615814209 25.45674705505371 152 158 158
-0.29956474900245667 -5.372488498687744 24.897624969482422 73 79 79
-0.2634507417678833 -5.030857563018799 23.27168083190918 83 89 89
-0.28967082500457764 -5.325013160705566 24.55107307434082 152 158 158
-0.23853521049022675 -4.823627471923828 22.24984359741211 112 118 118
-0.13656336069107056 -2.947951078414917 13.540061950683594 103 109 109
-0.3947351276874542 -7.209048748016357 33.43623352050781 82 88 88
-0.41333433985710144 -7.133540630340576 33.1353759765625 55 61 61
-0.37041112780570984 -7.520057678222656 34.76584243774414 81 87 87
-0.11734742671251297 1.125753402709961 -1.386535406112671 211 197 186
0.0873342826962471 1.34555983543396 -6.463143825531006 126 132 132
0.01522850152105093 1.1316019296646118 -5.211916446685791 212 205 186
0.08886166661977768 1.3296259641647339 -6.4013824462890625 38 12 0
0.012607621029019356 1.1255563497543335 -5.1674394607543945 209 208 190
0.016949456185102463 1.137284755706787 -5.250162601470947 215 208 190
0.058498870581388474 1.2827297449111938 -6.137584686279297 116 92 68
0.1453457474708557 1.206726312637329 -5.394960880279541 178 183 189
-0.037368014454841614 1.4828280210494995 -6.800055027008057 33 29 26
-0.0031907104421406984 1.5699938535690308 -7.078759670257568 70 74 77
-0.05861528590321541 1.4388035535812378 -6.57375955581665 30 37 43
-0.05073875933885574 1.4415968656539917 -6.60979700088501 81 79 80
-0.29230859875679016 1.8900853395462036 -5.425799369812012 223 229 229
-0.27636387944221497 1.8783888816833496 -5.512336254119873 197 203 203
-0.06718327105045319 1.4637986421585083 -6.657325744628906 14 9 5
-0.04824763536453247 1.445160150527954 -6.631107330322266 238 236 237
-0.05774615332484245 1.4728777408599854 -6.717741966247559 23 20 15
0.029514065012335777 1.411257028579712 -6.604187488555908 233 231 218
0.08357281237840652 1.6217758655548096 -7.316415786743164 222 244 232
0.0854252427816391 1.6196469068527222 -7.3202362060546875 31 30 35
0.07848887145519257 1.6173477172851562 -7.3035054206848145 105 115 113
-0.27979543805122375 1.8809340000152588 -5.491917610168457 223 229 229
-0.18944256007671356 1.502886414527893 -5.344000816345215 104 86 72
-0.05829288810491562 1.4403724670410156 -6.577965259552002 29 36 42
-0.040453266352415085 1.5395901203155518 -6.941867351531982 7 2 6
-0.06537456810474396 1.4647998809814453 -6.666803359985352 26 19 15
-0.14986900985240936 1.5083589553833008 -5.1600542068481445 39 32 24
-0.1899111270904541 1.503391146659851 -5.338201522827148 68 50 36
-0.27267250418663025 1.879006266593933 -5.521727561950684 196 202 202
0.051413845270872116 1.4185574054718018 -6.673527240753174 235 229 213
0.024106599390506744 1.4442044496536255 -6.7772979736328125 83 52 28
-0.038034822791814804 1.4528706073760986 -6.69218635559082 125 108 90
-0.07750575244426727 1.414846420288086 -6.329894542694092 216 227 219
-0.2947797179222107 1.5771565437316895 -5.606637001037598 226 252 223
0.481214702129364 1.6879117488861084 -5.214355945587158 200 211 215
-0.3009028434753418 1.5798853635787964 -5.435189723968506 255 255 239
0.005651493091136217 1.4898595809936523 -6.914586544036865 33 26 10
-0.032061509788036346 1.4906492233276367 -6.830501556396484 34 29 25
-0.09636422246694565 1.5440325736999512 -6.796184062957764 221 221 211
0.005535688251256943 1.4426792860031128 -6.742608070373535 85 63 40
0.18607665598392487 1.6677396297454834 -7.538527488708496 188 192 195
-0.39821913838386536 2.0612025260925293 -3.322608709335327 255 245 239
0.04924760013818741 1.595434546470642 -7.222663879394531 65 65 67
0.48186856508255005 1.687546968460083 -5.1521406173706055 199 214 195
-0.03333711251616478 1.4548135995864868 -6.711580276489258 170 161 147
-0.06727065145969391 1.5145217180252075 -6.820860862731934 31 30 35
0.19582907855510712 1.9754315614700317 -8.14052963256836 15 11 10
0.3043782413005829 2.129998207092285 -8.547872543334961 35 27 24
0.2746165692806244 2.0903871059417725 -8.449971199035645 59 54 50
0.310519814491272 2.1378040313720703 -8.56845474243164 53 45 42
0.22473280131816864 2.021602153778076 -8.263358116149902 10 5 1
0.15582969784736633 1.9390854835510254 -8.012361526489258 44 43 38
0.19617392122745514 1.9873034954071045 -8.162307739257812 71 69 70
-0.009626626968383789 1.7309082746505737 -7.294122695922852 82 90 92
0.17918795347213745 1.9679853916168213 -8.101018905639648 72 71 67
0.16659215092658997 1.9538787603378296 -8.055843353271484 89 88 83
0.14511273801326752 1.9007004499435425 -7.925948619842529 94 95 99
0.24083034694194794 2.042684316635132 -8.322112083435059 29 22 16
0.17824989557266235 1.9501999616622925 -8.06943130493164 139 135 134
0.19493956863880157 1.985447883605957 -8.157169342041016 67 66 64
0.313054621219635 2.140913248062134 -8.577465057373047 34 26 23
0.18756216764450073 1.9640353918075562 -8.10817813873291 227 223 222
9.178048133850098 -3.9260709285736084 10.765350341796875 40 41 45
0.1486063301563263 1.9310382604599 -7.985889434814453 74 73 68
0.2774117588996887 2.10964035987854 -8.486403465270996 49 39 30
0.23760859668254852 2.0374488830566406 -8.309341430664062 13 12 7
-0.13622163236141205 1.2957139015197754 -6.433077812194824 45 42 37
-0.16134168207645416 3.2048916816711426 -9.276578903198242 31 29 32
-0.02228589914739132 3.1770431995391846 -9.460762977600098 9 8 4
0.01144467294216156 3.283684253692627 -9.533791542053223 92 91 88
-0.022402724251151085 3.177255392074585 -9.4570951461792 8 7 3
-0.1879863739013672 3.19273042678833 -9.246831893920898 51 51 49
-0.19127778708934784 3.189556837081909 -9.239733695983887 88 88 86
-0.045318860560655594 3.085042953491211 -9.414786338806152 23 19 18
-0.06884583085775375 3.2030704021453857 -9.39911937713623 9 8 6
-0.0006222138181328773 3.244053840637207 -9.508481979370117 24 26 23
-0.010489928536117077 3.226717710494995 -9.487781524658203 52 53 49
0.016493959352374077 3.303300142288208 -9.551020622253418 27 26 24
0.00023719829914625734 3.2442359924316406 -9.510196685791016 29 31 28
-0.008833875879645348 3.219424247741699 -9.486451148986816 89 84 80
-0.017214961349964142 3.1843771934509277 -9.470145225524902 35 34 30
0.3003416061401367 3.7234103679656982 -10.779848098754883 0 6 0
0.1121712476015091 3.4060816764831543 -9.755291938781738 75 86 90
0.29870182275772095 3.691619873046875 -10.642961502075195 153 157 143
0.3210637867450714 3.631882667541504 -10.542354583740234 194 204 205
-0.05599319934844971 3.042484760284424 -9.397710800170898 28 26 31
0.14772693812847137 3.2369320392608643 -9.753292083740234 242 223 178
0.1467866599559784 3.3084185123443604 -9.760889053344727 237 236 232
0.18066835403442383 3.600673198699951 -10.152532577514648 196 202 198
0.19613438844680786 3.4251012802124023 -9.916641235351562 224 248 226
0.29708588123321533 3.72434139251709 -10.739126205444336 222 237 244
-0.24689902365207672 3.167621374130249 -9.171303749084473 62 64 63
-0.2430037409067154 2.982478618621826 -9.163131713867188 18 22 21
-0.03346746042370796 3.204392671585083 -9.449435234069824 42 38 35
0.15252354741096497 3.2691402435302734 -9.763632774353027 39 40 42
0.2323296070098877 4.122550964355469 -11.372542381286621 2 6 6
0.09446518123149872 4.16852331161499 -11.353748321533203 124 117 105
0.19137120246887207 4.115135192871094 -11.27393913269043 187 168 132
0.14135505259037018 4.153318881988525 -11.332916259765625 178 186 185
0.20227795839309692 4.074453830718994 -11.189554214477539 182 200 184
0.17895132303237915 4.140713691711426 -11.341443061828613 158 158 157
0.10972877591848373 4.16711950302124 -11.365257263183594 223 224 222
0.08999380469322205 4.174013137817383 -11.388498306274414 197 202 199
0.1934185028076172 4.137772083282471 -11.35439395904541 52 49 34
0.09461872279644012 4.165654182434082 -11.333030700683594 168 162 152
0.22282181680202484 4.137197017669678 -11.399517059326172 12 14 13
0.26673638820648193 4.067865371704102 -11.309638977050781 20 21 15
0.17741060256958008 4.13994836807251 -11.335741996765137 1 1 1
-1.3853967189788818 3.721921443939209 -11.73126220703125 190 201 205
-1.337984323501587 3.7443583011627197 -11.723519325256348 9 16 24
-1.3430585861206055 3.742992639541626 -11.725152969360352 0 3 11
-1.2538838386535645 2.915769338607788 -9.98802661895752 3 23 47
-1.3207896947860718 2.9437220096588135 -9.952202796936035 224 228 227
-1.1343674659729004 2.9165737628936768 -9.889452934265137 189 204 209
-1.6083725690841675 2.7952544689178467 -10.256954193115234 152 182 174
-1.0203464031219482 2.9351181983947754 -9.816640853881836 47 55 57
-1.5569995641708374 2.7976880073547363 -10.230631828308105 117 142 146
